<?xml version="1.0" encoding="UTF-8"?>
<!DOCTYPE svg PUBLIC "-//W3C//DTD SVG 1.1//EN" "http://www.w3.org/Graphics/SVG/1.1/DTD/svg11.dtd">
<svg xmlns="http://www.w3.org/2000/svg" version="1.1" width="600px" height="600px" style="shape-rendering:geometricPrecision; text-rendering:geometricPrecision; image-rendering:optimizeQuality; fill-rule:evenodd; clip-rule:evenodd" xmlns:xlink="http://www.w3.org/1999/xlink">
<g><path style="opacity:0.913" fill="#000000" d="M 276.5,-0.5 C 291.833,-0.5 307.167,-0.5 322.5,-0.5C 428.859,11.0646 509.026,62.7313 563,154.5C 583.565,192.782 595.731,233.448 599.5,276.5C 599.5,291.833 599.5,307.167 599.5,322.5C 587.935,428.859 536.269,509.026 444.5,563C 406.218,583.565 365.552,595.731 322.5,599.5C 307.167,599.5 291.833,599.5 276.5,599.5C 170.141,587.935 89.9744,536.269 36,444.5C 15.4352,406.218 3.26854,365.552 -0.5,322.5C -0.5,307.167 -0.5,291.833 -0.5,276.5C 11.0646,170.141 62.7313,89.9744 154.5,36C 192.782,15.4352 233.448,3.26854 276.5,-0.5 Z M 290.5,24.5 C 293.518,24.3354 296.518,24.502 299.5,25C 297.447,88.6083 295.447,152.275 293.5,216C 295.763,234.463 297.263,252.963 298,271.5C 296.644,272.38 295.144,272.714 293.5,272.5C 290.885,254.812 288.052,237.146 285,219.5C 266.369,157.94 247.535,96.4396 228.5,35C 229.944,32.9655 231.944,32.1322 234.5,32.5C 237.207,42.0328 243.54,47.5328 253.5,49C 266.329,50.724 277.163,46.8907 286,37.5C 288.602,33.5262 290.102,29.1929 290.5,24.5 Z M 300.5,24.5 C 302.167,24.5 303.833,24.5 305.5,24.5C 306.606,37.4468 313.606,45.2801 326.5,48C 338.541,50.533 349.041,47.6997 358,39.5C 359.993,37.1825 361.159,34.5158 361.5,31.5C 363.854,31.838 366.187,32.338 368.5,33C 369.022,33.5613 369.355,34.228 369.5,35C 351.333,96.1667 333.167,157.333 315,218.5C 311.84,236.461 309.006,254.461 306.5,272.5C 304.833,272.5 303.167,272.5 301.5,272.5C 303.647,249.716 304.98,226.882 305.5,204C 304.209,144.121 302.543,84.2881 300.5,24.5 Z M 222.5,34.5 C 223.833,34.5 225.167,34.5 226.5,34.5C 241.996,97.1526 257.496,159.819 273,222.5C 279.744,239.315 285.911,256.315 291.5,273.5C 290.07,273.421 288.736,273.754 287.5,274.5C 279.432,257.134 271.265,239.801 263,222.5C 229.167,168.667 195.333,114.833 161.5,61C 163.165,59.1599 165.165,58.4932 167.5,59C 173.913,67.7855 182.58,71.1188 193.5,69C 211.426,65.2685 220.093,54.4351 219.5,36.5C 220.602,35.8243 221.602,35.1577 222.5,34.5 Z M 371.5,34.5 C 373.288,34.2148 374.955,34.5481 376.5,35.5C 374.666,53.1977 382.666,63.6977 400.5,67C 412.522,69.4383 422.356,65.9383 430,56.5C 431.586,57.376 433.086,58.376 434.5,59.5C 401.585,114.999 368.418,170.332 335,225.5C 329.333,238.167 323.667,250.833 318,263.5C 316.322,267.532 314.156,271.199 311.5,274.5C 310.205,273.902 308.872,273.402 307.5,273C 314.407,256.013 320.907,238.847 327,221.5C 341.995,159.188 356.828,96.8543 371.5,34.5 Z M 436.5,60.5 C 438.305,61.2371 439.971,62.2371 441.5,63.5C 436.836,75.6768 439.503,86.1768 449.5,95C 461.715,103.914 474.382,104.748 487.5,97.5C 489.784,98.5818 490.95,100.248 491,102.5C 445,147.167 399,191.833 353,236.5C 342.022,250.312 330.856,263.979 319.5,277.5C 317.438,278.761 315.772,278.261 314.5,276C 327.058,258.441 339.224,240.607 351,222.5C 379.759,168.591 408.259,114.591 436.5,60.5 Z M 157.5,62.5 C 159.592,62.5614 161.092,63.5614 162,65.5C 192.254,119.673 222.254,174.006 252,228.5C 262.278,243.778 272.945,258.778 284,273.5C 284.779,275.906 283.946,277.573 281.5,278.5C 266.764,259.925 251.097,242.092 234.5,225C 191.667,184.833 148.833,144.667 106,104.5C 106.05,102.248 107.216,100.582 109.5,99.5C 120.257,107.245 131.257,107.412 142.5,100C 154.709,91.0369 158.709,79.3702 154.5,65C 155.571,64.1482 156.571,63.3149 157.5,62.5 Z M 493.5,103.5 C 495.63,105.127 497.63,106.96 499.5,109C 492.764,116.917 491.264,125.751 495,135.5C 502.99,152.746 516.156,159.079 534.5,154.5C 535.974,155.436 536.974,156.77 537.5,158.5C 480.822,190.507 423.822,222.007 366.5,253C 352,263.5 337.5,274 323,284.5C 320.945,283.328 320.278,281.661 321,279.5C 337.294,266.208 353.294,252.541 369,238.5C 410.507,193.468 452.007,148.468 493.5,103.5 Z M 102.5,105.5 C 149.162,152.97 195.496,200.803 241.5,249C 254.457,258.955 267.124,269.288 279.5,280C 278.833,281 278.167,282 277.5,283C 274.902,282.874 272.569,281.874 270.5,280C 257.676,270.421 244.676,261.088 231.5,252C 174.587,221.961 117.754,191.794 61,161.5C 61.2946,158.566 62.4612,155.899 64.5,153.5C 78.7163,158.595 90.2163,154.929 99,142.5C 105.641,131.533 106.141,120.366 100.5,109C 100.978,107.697 101.645,106.531 102.5,105.5 Z M 538.5,160.5 C 539.81,162.435 541.143,164.435 542.5,166.5C 532.251,176.02 529.751,187.353 535,200.5C 540.61,213.643 550.443,219.976 564.5,219.5C 565.598,221.632 566.598,223.798 567.5,226C 503.944,241.712 440.277,257.045 376.5,272C 360.5,278 344.5,284 328.5,290C 327.365,290.749 326.365,290.583 325.5,289.5C 324.355,288.109 324.355,286.776 325.5,285.5C 341.833,278 358.167,270.5 374.5,263C 429.34,228.97 484.006,194.804 538.5,160.5 Z M 58.5,162.5 C 113.472,195.655 168.472,228.822 223.5,262C 240.833,270 258.167,278 275.5,286C 274.624,287.586 273.624,289.086 272.5,290.5C 256.206,284.235 239.872,278.068 223.5,272C 159.273,257.442 95.2734,242.276 31.5,226.5C 32.2458,225.264 32.5792,223.93 32.5,222.5C 46.6629,223.875 56.4963,217.875 62,204.5C 66.1941,193.098 64.8608,182.431 58,172.5C 56.7453,171.789 55.5786,170.956 54.5,170C 55.9858,167.525 57.3192,165.025 58.5,162.5 Z M 566.5,228.5 C 568.011,229.958 569.011,231.791 569.5,234C 561.94,236.209 556.773,241.043 554,248.5C 550.265,263.064 553.765,275.564 564.5,286C 568.474,288.602 572.807,290.102 577.5,290.5C 577.5,292.833 577.5,295.167 577.5,297.5C 512.983,296.403 448.483,294.736 384,292.5C 364.853,294.465 345.686,296.131 326.5,297.5C 326.5,295.833 326.5,294.167 326.5,292.5C 346.619,289.71 366.619,286.21 386.5,282C 446.643,264.226 506.643,246.393 566.5,228.5 Z M 30.5,229.5 C 91.5265,246.841 152.526,264.341 213.5,282C 233.097,285.933 252.763,289.433 272.5,292.5C 272.5,294.167 272.5,295.833 272.5,297.5C 253.818,296.074 235.151,294.408 216.5,292.5C 151.502,294.593 86.5021,296.593 21.5,298.5C 21.5,296.833 21.5,295.167 21.5,293.5C 34.6949,291.473 42.5282,283.807 45,270.5C 47.0006,258.655 43.8339,248.488 35.5,240C 33.7834,238.441 31.7834,237.608 29.5,237.5C 29.8333,234.833 30.1667,232.167 30.5,229.5 Z M 297.5,273.5 C 314.048,274.435 323.382,283.101 325.5,299.5C 321.766,320.076 309.766,327.909 289.5,323C 275.793,315.546 271.293,304.379 276,289.5C 280.492,280.501 287.658,275.167 297.5,273.5 Z M 270.5,299.5 C 272.074,301.102 272.741,303.102 272.5,305.5C 254.794,308.007 237.127,310.841 219.5,314C 156.624,333.015 93.6235,351.515 30.5,369.5C 30.7135,367.856 30.3802,366.356 29.5,365C 44.1265,357.493 49.2931,345.66 45,329.5C 41.5197,317.684 33.853,310.351 22,307.5C 21.5034,305.19 21.3367,302.857 21.5,300.5C 82.5021,301.671 143.502,303.004 204.5,304.5C 226.762,304.383 248.762,302.716 270.5,299.5 Z M 327.5,299.5 C 349.518,302.517 371.685,304.184 394,304.5C 455.185,303.132 516.351,301.465 577.5,299.5C 577.5,301.5 577.5,303.5 577.5,305.5C 564.544,306.616 556.711,313.616 554,326.5C 550.994,342.465 556.161,354.799 569.5,363.5C 569,365.5 568.5,367.5 568,369.5C 505.587,350.808 443.087,332.308 380.5,314C 362.539,310.84 344.539,308.006 326.5,305.5C 326.517,303.435 326.85,301.435 327.5,299.5 Z M 270.5,307.5 C 271.5,307.5 272.5,307.5 273.5,307.5C 274.052,309.331 274.052,310.997 273.5,312.5C 257.167,320 240.833,327.5 224.5,335C 169.417,368.959 114.25,402.792 59,436.5C 57.7085,434.751 56.5418,432.918 55.5,431C 62.5382,426.262 66.2048,419.596 66.5,411C 64.6795,390.68 53.6795,379.513 33.5,377.5C 32.8333,375.833 32.1667,374.167 31.5,372.5C 95.0409,356.558 158.708,341.058 222.5,326C 238.717,320.1 254.717,313.933 270.5,307.5 Z M 325.5,307.5 C 342.909,313.367 360.242,319.534 377.5,326C 440.776,341.153 504.11,355.986 567.5,370.5C 567.579,371.93 567.246,373.264 566.5,374.5C 551.303,374.182 541.137,381.182 536,395.5C 531.741,408.616 534.575,419.783 544.5,429C 543.521,431.137 542.188,432.971 540.5,434.5C 484.833,401 429.167,367.5 373.5,334C 357.115,326.595 340.781,319.095 324.5,311.5C 325.246,310.264 325.579,308.93 325.5,307.5 Z M 274.5,314.5 C 277.001,314.826 278.168,316.159 278,318.5C 257.474,334.351 238.141,351.685 220,370.5C 181.616,411.429 143.116,452.262 104.5,493C 102.248,492.95 100.582,491.784 99.5,489.5C 108.724,474.511 106.724,461.011 93.5,449C 84.4464,441.795 74.6131,440.295 64,444.5C 61.6853,442.465 60.8519,440.132 61.5,437.5C 118.5,406.667 175.5,375.833 232.5,345C 246.682,334.97 260.682,324.803 274.5,314.5 Z M 322.5,314.5 C 337.181,323.656 351.514,333.489 365.5,344C 424.012,374.42 482.012,405.586 539.5,437.5C 538.917,439.002 538.084,440.335 537,441.5C 525.215,436.86 514.882,439.194 506,448.5C 496.22,460.654 495.053,473.487 502.5,487C 500.667,488.833 498.833,490.667 497,492.5C 450.864,444.03 404.364,395.863 357.5,348C 345.242,338.287 333.075,328.453 321,318.5C 320.7,316.934 321.2,315.601 322.5,314.5 Z M 318.5,319.5 C 332.517,337.362 347.517,354.528 363.5,371C 407.801,411.633 451.801,452.633 495.5,494C 493.333,496.167 491.167,498.333 489,500.5C 484.904,495.855 479.737,493.855 473.5,494.5C 455.223,496.609 444.557,506.775 441.5,525C 441.849,528.244 442.515,531.41 443.5,534.5C 442.086,535.624 440.586,536.624 439,537.5C 408.667,481.5 378.333,425.5 348,369.5C 337.722,354.222 327.055,339.222 316,324.5C 315.294,322.045 316.127,320.378 318.5,319.5 Z M 279.5,320.5 C 281.681,320.284 283.347,321.117 284.5,323C 273.877,337.746 263.377,352.579 253,367.5C 222.913,424.681 192.08,481.348 160.5,537.5C 158.483,536.826 156.817,535.659 155.5,534C 160.69,521.538 158.023,510.871 147.5,502C 135.45,493.149 122.95,492.316 110,499.5C 107.435,498.622 106.101,496.956 106,494.5C 153.667,449.167 201.333,403.833 249,358.5C 259,345.67 269.167,333.003 279.5,320.5 Z M 312.5,323.5 C 320.549,340.773 328.715,358.107 337,375.5C 370.365,429.368 403.532,483.368 436.5,537.5C 432.9,542.842 429.9,542.342 427.5,536C 411.193,527.393 396.693,529.893 384,543.5C 379.737,549.457 377.57,556.124 377.5,563.5C 375.591,564.348 373.591,564.682 371.5,564.5C 356.987,501.78 342.154,439.113 327,376.5C 321.111,359.724 314.945,343.058 308.5,326.5C 309.901,325.479 311.235,324.479 312.5,323.5 Z M 286.5,324.5 C 288.179,324.892 289.846,325.392 291.5,326C 285.338,342.483 279.172,358.983 273,375.5C 257.976,438.928 242.643,502.261 227,565.5C 225.491,564.91 223.991,564.244 222.5,563.5C 223.965,550.937 218.965,541.77 207.5,536C 197.949,531.842 188.282,531.509 178.5,535C 174.745,536.588 171.745,539.088 169.5,542.5C 167.118,541.649 165.118,540.316 163.5,538.5C 196.667,484.167 229.833,429.833 263,375.5C 270.847,358.474 278.681,341.474 286.5,324.5 Z M 293.5,326.5 C 297.49,325.824 299.157,327.49 298.5,331.5C 296.833,348.167 295.167,364.833 293.5,381.5C 295.696,445.815 297.363,510.148 298.5,574.5C 295.833,574.5 293.167,574.5 290.5,574.5C 287.35,562.518 279.684,555.018 267.5,552C 256.279,549.465 246.446,551.965 238,559.5C 236.289,561.956 234.956,564.623 234,567.5C 232.391,566.853 230.891,566.02 229.5,565C 247.526,505.253 265.359,445.42 283,385.5C 286.933,365.904 290.433,346.238 293.5,326.5 Z M 301.5,326.5 C 303.167,326.5 304.833,326.5 306.5,326.5C 309.125,345.251 312.292,363.918 316,382.5C 333.974,443.42 352.141,504.254 370.5,565C 368.635,566.301 366.635,566.635 364.5,566C 358.098,554.132 348.098,549.132 334.5,551C 320.2,552.808 311.533,560.641 308.5,574.5C 305.833,574.5 303.167,574.5 300.5,574.5C 302.5,514.186 304.166,453.852 305.5,393.5C 305.01,371.114 303.677,348.781 301.5,326.5 Z"/></g>
<g><path style="opacity:0.912" fill="#000000" d="M 298.5,286.5 C 310.416,288.676 314.25,295.342 310,306.5C 303,314.5 296,314.5 289,306.5C 284.895,296.377 288.062,289.71 298.5,286.5 Z"/></g>
</svg>
