<?xml version="1.0" encoding="UTF-8"?>
<!DOCTYPE svg PUBLIC "-//W3C//DTD SVG 1.1//EN" "http://www.w3.org/Graphics/SVG/1.1/DTD/svg11.dtd">
<svg xmlns="http://www.w3.org/2000/svg" version="1.1" width="200px" height="200px" style="shape-rendering:geometricPrecision; text-rendering:geometricPrecision; image-rendering:optimizeQuality; fill-rule:evenodd; clip-rule:evenodd" xmlns:xlink="http://www.w3.org/1999/xlink">
<g><path style="opacity:0.949" fill="#000000" d="M 58.5,1.5 C 64.4345,1.46094 68.1012,4.29427 69.5,10C 72.05,11.3704 74.7167,12.5371 77.5,13.5C 80.3162,12.0072 83.1495,10.6738 86,9.5C 89.8815,9.89069 92.3815,11.8907 93.5,15.5C 92.5206,18.7639 91.1872,21.7639 89.5,24.5C 88.1266,24.3433 86.7932,24.51 85.5,25C 86.8333,26 86.8333,27 85.5,28C 88.2443,29.7232 89.5777,32.2232 89.5,35.5C 87.54,36.1383 85.7067,36.1383 84,35.5C 83.9519,37.5441 84.4519,39.5441 85.5,41.5C 90.1251,44.2177 94.4584,47.3844 98.5,51C 94.8398,53.6489 93.1731,56.9823 93.5,61C 98.853,63.7011 104.186,66.3678 109.5,69C 112.099,69.769 114.599,69.6023 117,68.5C 118.562,69.9314 120.062,71.4314 121.5,73C 127.053,74.6759 133.053,75.8425 139.5,76.5C 139.335,73.1501 139.502,69.8168 140,66.5C 141.699,65.5939 143.533,65.2606 145.5,65.5C 143.797,69.2648 144.797,72.0982 148.5,74C 153.44,73.6744 158.44,73.5077 163.5,73.5C 163.297,71.3618 162.297,69.6951 160.5,68.5C 164.387,67.7303 167.387,65.7303 169.5,62.5C 173.043,61.1292 176.21,59.1292 179,56.5C 181.776,57.685 184.61,57.685 187.5,56.5C 189.088,57.0096 190.255,58.0096 191,59.5C 190.445,62.3978 191.945,63.7311 195.5,63.5C 195.753,65.8273 195.086,67.8273 193.5,69.5C 193.833,70.1667 194.167,70.8333 194.5,71.5C 186.94,71.0418 182.607,74.7085 181.5,82.5C 179.289,83.1928 178.955,84.3594 180.5,86C 178.807,88.2201 177.807,90.7201 177.5,93.5C 175.833,93.5 174.167,93.5 172.5,93.5C 172.716,96.4317 172.049,99.0983 170.5,101.5C 171.599,104.761 170.266,106.427 166.5,106.5C 165.972,102.788 165.138,99.121 164,95.5C 161.795,100.799 159.962,100.799 158.5,95.5C 158.337,92.661 159.67,90.9943 162.5,90.5C 163.833,89.3801 164.333,88.0468 164,86.5C 159.92,85.6998 155.753,85.1998 151.5,85C 149.431,84.6758 149.098,83.8425 150.5,82.5C 148.606,79.9666 146.106,78.2999 143,77.5C 142.167,78.3333 141.333,79.1667 140.5,80C 142.64,80.9733 144.307,82.4733 145.5,84.5C 143.599,85.5446 141.933,86.8779 140.5,88.5C 142.053,89.439 143.387,90.6057 144.5,92C 143.198,93.9233 143.365,95.7566 145,97.5C 146.281,101.619 145.281,104.953 142,107.5C 141.228,107.355 140.561,107.022 140,106.5C 138.829,107.893 137.329,108.727 135.5,109C 133.559,110.816 132.892,112.816 133.5,115C 130.905,118.305 127.571,120.639 123.5,122C 117.591,129.584 110.258,135.25 101.5,139C 100.167,139.667 100.167,140.333 101.5,141C 98.1778,142.572 95.3445,144.739 93,147.5C 92.9606,152.022 93.4606,156.522 94.5,161C 93.1667,164.667 91.8333,168.333 90.5,172C 91.4929,174.453 91.6595,176.953 91,179.5C 90,178.167 89,178.167 88,179.5C 86.872,181.345 86.372,183.345 86.5,185.5C 83.0347,185.351 81.0347,187.018 80.5,190.5C 78.3439,192.938 76.0106,193.105 73.5,191C 70.3849,185.154 67.8849,178.987 66,172.5C 61.5886,166.941 58.9219,160.608 58,153.5C 56,149.5 54,145.5 52,141.5C 50.1925,134.222 48.6925,126.889 47.5,119.5C 48.8487,114.603 48.3487,109.936 46,105.5C 46.0109,110.672 43.1776,113.672 37.5,114.5C 32.9764,112.487 29.143,109.487 26,105.5C 25.2506,104.365 25.4173,103.365 26.5,102.5C 28.9983,103.121 31.3316,102.455 33.5,100.5C 33.3333,100.167 33.1667,99.8333 33,99.5C 26.9813,102.397 23.148,100.397 21.5,93.5C 26.3716,90.5024 31.5382,89.5024 37,90.5C 37.139,87.4248 36.639,84.4248 35.5,81.5C 34.5,81.5 33.5,81.5 32.5,81.5C 32.7852,79.712 32.4519,78.0453 31.5,76.5C 29.058,75.616 28.2246,73.9493 29,71.5C 30.8783,69.9571 32.3783,68.1238 33.5,66C 35.1346,65.4604 36.4679,65.9604 37.5,67.5C 39.3817,66.9067 41.2151,66.2401 43,65.5C 44.617,62.2157 46.9503,59.5491 50,57.5C 50.5967,54.3207 52.2633,51.9874 55,50.5C 55.2602,48.3825 56.2602,46.7158 58,45.5C 58.3333,43.5 58.6667,41.5 59,39.5C 60.4866,38.8448 61.6533,37.8448 62.5,36.5C 58.3896,34.7069 55.0563,32.0403 52.5,28.5C 52.7066,25.6041 52.8733,22.6041 53,19.5C 53.8333,18.6667 54.6667,17.8333 55.5,17C 53.3847,13.6135 50.3847,11.7802 46.5,11.5C 46.2865,9.85613 46.6198,8.35613 47.5,7C 50.9908,4.58785 54.6574,2.75452 58.5,1.5 Z"/></g>
<g><path style="opacity:0.295" fill="#000000" d="M 164.5,154.5 C 165.707,158.456 165.374,162.456 163.5,166.5C 162.88,162.481 163.213,158.481 164.5,154.5 Z"/></g>
<g><path style="opacity:0.256" fill="#000000" d="M 161.5,170.5 C 163.465,170.948 163.798,171.948 162.5,173.5C 161.614,172.675 161.281,171.675 161.5,170.5 Z"/></g>
<g><path style="opacity:0.319" fill="#000000" d="M 168.5,192.5 C 169.995,192.415 170.995,193.081 171.5,194.5C 169.604,195.639 168.604,194.973 168.5,192.5 Z"/></g>
</svg>
